#!OML:ASF E:\Mandelcareful walks\Project 1\Capture day 1\Session 1\Subject1.ASF
:FULLY-SPECIFIED
:DEGREES
158
root -8.49865 1.67357 1.37062 134.844 82.5994 33.2909
lowerback -16.7871 -0.778304 4.95375
upperback -1.32883 -2.04659 1.48718
thorax 7.87565 -0.82954 -1.68263
lowerneck -10.6011 22.8386 12.0157
upperneck 15.7441 32.2524 -17.2966
head 11.7165 14.167 -2.33649
rclavicle 8.05078e-015 2.18073e-014
rhumerus -62.8423 -6.74841 -57.4198
rradius 128.041
rwrist -10.4601
rhand -51.9419 -19.4818
rfingers 7.12502
rthumb -24.4518 -47.9412
lclavicle 8.05078e-015 2.18073e-014
lhumerus -53.7738 0.698675 50.0862
lradius 109.576
lwrist 14.5756
lhand -51.841 -66.6238
lfingers 7.12502
lthumb -24.3551 -38.1514
rfemur -14.5391 -5.4441 10.0852
rtibia 17.3191
rfoot -54.41 -40.3691
rtoes 48.2889
lfemur -25.0392 26.6251 -18.7322
ltibia 32.009
lfoot -19.5488 24.1963
ltoes 18.2715
159
root -8.50925 1.6757 1.36971 137.069 82.9853 35.5897
lowerback -16.8363 -0.543187 5.53821
upperback -1.15187 -1.86018 1.55292
thorax 8.09164 -0.710396 -1.90162
lowerneck -10.6493 22.7882 10.8296
upperneck 14.2747 31.658 -15.4317
head 10.5008 14.1631 -1.90525
rclavicle -1.06176e-013 -6.22631e-014
rhumerus -62.3789 -6.89001 -57.1
rradius 127.752
rwrist -10.4991
rhand -51.7982 -21.0273
rfingers 7.12502
rthumb -24.3141 -49.5052
lclavicle -1.06176e-013 -6.22631e-014
lhumerus -52.2374 -0.308658 50.8784
lradius 108.126
lwrist 14.4527
lhand -53.3818 -72.5072
lfingers 7.12502
lthumb -25.8315 -44.2413
rfemur -14.4854 -5.21185 10.6333
rtibia 17.2707
rfoot -54.8658 -40.3249
rtoes 48.4232
lfemur -25.0605 26.7274 -18.1603
ltibia 32.1001
lfoot -19.5104 24.2949
ltoes 18.2243
160
root -8.51992 1.67905 1.37077 136.697 83.0487 35.293
lowerback -16.797 -0.397441 5.50066
upperback -1.00658 -1.6659 1.58947
thorax 8.2443 -0.611465 -1.79633
lowerneck -9.56437 23.0343 10.9279
upperneck 12.9857 31.8739 -15.8085
head 9.97289 14.4178 -2.13326
rclavicle 2.45002e-014 3.89913e-014
rhumerus -62.2921 -6.55334 -56.8643
rradius 127.545
rwrist -10.4828
rhand -52.3576 -21.9984
rfingers 7.12502
rthumb -24.8502 -50.4034
lclavicle 2.45002e-014 3.89913e-014
lhumerus -50.4087 -1.07508 51.3659
lradius 107.009
lwrist 14.9759
lhand -53.9085 -76.5675
lfingers 7.12502
lthumb -26.3358 -48.376
rfemur -14.418 -5.32632 10.6969
rtibia 17.1557
rfoot -54.7278 -40.4342
rtoes 48.3985
lfemur -25.0464 26.8178 -18.0841
ltibia 32.2031
lfoot -19.8784 24.2107
ltoes 18.221
161
root -8.53379 1.67752 1.37255 136.362 82.9698 35.1883
lowerback -16.6782 -0.308782 5.23959
upperback -0.857975 -1.50086 1.62921
thorax 8.35917 -0.537196 -1.56654
lowerneck -11.0666 23.4075 7.4061
upperneck 14.3386 31.9531 -10.0128
head 9.0171 14.6393 -0.151578
rclavicle -3.85642e-014 -5.66598e-014
rhumerus -62.3463 -6.06105 -56.5131
rradius 127.662
rwrist -10.7253
rhand -52.719 -23.4753
rfingers 7.12502
rthumb -25.1966 -51.832
lclavicle -3.85642e-014 -5.66598e-014
lhumerus -48.5195 -1.95818 51.6621
lradius 106.079
lwrist 15.4705
lhand -53.9476 -78.6715
lfingers 7.12502
lthumb -26.3732 -50.4856
rfemur -14.1779 -5.21475 10.6106
rtibia 17.2265
rfoot -55.1815 -40.1232
rtoes 48.6547
lfemur -24.7835 26.896 -18.0158
ltibia 32.2071
lfoot -20.1308 24.108
ltoes 18.068
162
root -8.54311 1.67673 1.3742 135.714 82.8872 34.579
lowerback -16.7793 -0.231263 5.03002
upperback -0.77612 -1.36535 1.5989
thorax 8.51749 -0.473758 -1.45088
lowerneck -12.0357 23.6291 6.64485
upperneck 16.254 32.0212 -6.86393
head 9.13623 14.7371 0.920986
rclavicle 5.38706e-014 4.56087e-014
rhumerus -62.3241 -5.45226 -56.1603
rradius 127.893
rwrist -11.4067
rhand -52.8902 -25.0694
rfingers 7.12502
rthumb -25.3606 -53.403
lclavicle 5.38706e-014 4.56087e-014
lhumerus -47.2003 -2.9987 51.6593
lradius 105.508
lwrist 16.2018
lhand -54.8867 -85.0668
lfingers 7.12502
lthumb -27.2717 -57.0188
rfemur -14.2604 -5.05609 10.4862
rtibia 17.4742
rfoot -55.5201 -40.1708
rtoes 48.3586
lfemur -24.6903 26.9031 -18.0693
ltibia 32.1269
lfoot -20.0294 24.1892
ltoes 17.742
163
root -8.54856 1.67916 1.37429 133.622 82.6182 32.4664
lowerback -16.8952 -0.249671 4.58742
upperback -0.716852 -1.30658 1.48714
thorax 8.65698 -0.457285 -1.30925
lowerneck -14.1945 23.7845 5.81085
upperneck 20.3205 31.9112 -2.43745
head 9.96385 14.7116 2.61522
rclavicle -1.25234e-014 -1.41572e-014
rhumerus -62.0969 -4.75871 -55.9586
rradius 128.014
rwrist -12.1348
rhand -53.2568 -26.9166
rfingers 7.12502
rthumb -25.7117 -55.1999
lclavicle -1.25234e-014 -1.41572e-014
lhumerus -46.8937 -3.80413 51.5045
lradius 105.594
lwrist 16.9827
lhand -54.7647 -86.1814
lfingers 7.12502
lthumb -27.1551 -58.1151
rfemur -14.4406 -5.28825 10.0998
rtibia 17.6736
rfoot -55.1021 -40.6259
rtoes 47.3239
lfemur -24.6642 26.8431 -18.4525
ltibia 32.0696
lfoot -19.9143 24.3162
ltoes 17.2209
164
root -8.55929 1.68073 1.37381 132.361 82.4187 31.2339
lowerback -17.0036 -0.298677 4.22105
upperback -0.598897 -1.3118 1.45361
thorax 8.85346 -0.469576 -1.14139
lowerneck -13.3292 23.9055 6.67126
upperneck 19.2024 32.1265 -3.9919
head 9.85978 14.7955 2.01895
rclavicle 0 1.31384e-014
rhumerus -61.6027 -4.17746 -55.7769
rradius 128.086
rwrist -12.7401
rhand -53.6568 -29.0499
rfingers 7.12502
rthumb -26.0947 -57.2772
lclavicle 0 1.31384e-014
lhumerus -47.0853 -4.32524 51.4409
lradius 106.019
lwrist 17.3378
lhand -54.6146 -85.4432
lfingers 7.12502
lthumb -27.0115 -57.3546
rfemur -14.5377 -5.78995 9.87991
rtibia 17.8106
rfoot -54.3626 -40.7417
rtoes 46.905
lfemur -24.6215 26.8453 -18.6826
ltibia 32.0534
lfoot -19.8923 24.4294
ltoes 16.8385
165
root -8.57128 1.68289 1.37403 133.349 82.4987 32.2913
lowerback -17.139 -0.283515 4.31259
upperback -0.428187 -1.33003 1.48919
thorax 9.11519 -0.468623 -1.16142
lowerneck -12.9133 23.9408 7.11601
upperneck 18.4505 32.2282 -5.03517
head 9.79667 14.8256 1.64417
rclavicle 1.61016e-014 1.86982e-014
rhumerus -61.173 -3.69818 -55.5379
rradius 128.068
rwrist -13.3919
rhand -53.9661 -30.5633
rfingers 7.12502
rthumb -26.3909 -58.7466
lclavicle 1.61016e-014 1.86982e-014
lhumerus -46.3798 -4.97327 51.2398
lradius 105.747
lwrist 17.9201
lhand -54.5159 -85.8844
lfingers 7.12502
lthumb -26.9171 -57.7812
rfemur -14.5814 -6.2027 10.106
rtibia 17.9298
rfoot -54.1234 -40.4703
rtoes 47.5459
lfemur -24.5909 26.8444 -18.4448
ltibia 32.0709
lfoot -19.9866 24.4977
ltoes 17.0504
166
root -8.58205 1.68813 1.37304 135.696 82.6683 34.8445
lowerback -17.1906 -0.222994 4.61489
upperback -0.189147 -1.33077 1.54382
thorax 9.40304 -0.448592 -1.27463
lowerneck -12.9631 23.9354 7.19319
upperneck 18.2771 32.2578 -5.41648
head 9.8296 14.8148 1.54403
rclavicle -3.71727e-014 6.08778e-015
rhumerus -61.0225 -3.29695 -55.2142
rradius 127.891
rwrist -14.0624
rhand -54.3693 -31.2439
rfingers 7.12502
rthumb -26.7768 -59.3686
lclavicle -3.71727e-014 6.08778e-015
lhumerus -45.2116 -5.85227 50.9471
lradius 105.243
lwrist 18.6987
lhand -54.4519 -86.8261
lfingers 7.12502
lthumb -26.8558 -58.7135
rfemur -14.4953 -6.81998 10.5302
rtibia 18.069
rfoot -53.3788 -40.5137
rtoes 48.4971
lfemur -24.4366 26.7988 -17.9562
ltibia 32.0856
lfoot -19.8614 24.4243
ltoes 17.7549
167
root -8.59155 1.68809 1.36863 138.036 82.7215 37.262
lowerback -17.4343 -0.154802 4.91126
upperback 0.0232721 -1.32644 1.53887
thorax 9.77025 -0.421493 -1.45002
lowerneck -13.1469 23.9435 7.08421
upperneck 18.1717 32.3219 -5.68636
head 9.85971 14.8133 1.50956
rclavicle -1.59624e-013 -1.25843e-013
rhumerus -60.8973 -3.22369 -55.0413
rradius 127.813
rwrist -14.544
rhand -54.7561 -31.8509
rfingers 7.12502
rthumb -27.1468 -59.9185
lclavicle -1.59624e-013 -1.25843e-013
lhumerus -43.8281 -6.73168 50.6337
lradius 104.604
lwrist 19.4443
lhand -54.5108 -87.6404
lfingers 7.12502
lthumb -26.9121 -59.5364
rfemur -14.5624 -7.77836 10.862
rtibia 18.2599
rfoot -52.4112 -40.7266
rtoes 47.9588
lfemur -24.4246 26.7161 -17.6856
ltibia 32.0652
lfoot -19.6431 24.3533
ltoes 17.8016
